<svg width="34" height="34" viewBox="0 0 34 34" fill="none" xmlns="http://www.w3.org/2000/svg">
<path d="M16.801 5.59998C13.7593 5.59998 13.3775 5.61328 12.1828 5.66764C10.9905 5.72224 10.1766 5.91101 9.46448 6.18798C8.72784 6.47405 8.10297 6.85672 7.48043 7.4795C6.85742 8.10203 6.47475 8.72691 6.18775 9.46332C5.91008 10.1757 5.72108 10.9898 5.66741 12.1817C5.61398 13.3764 5.59998 13.7583 5.59998 16.8001C5.59998 19.8419 5.61351 20.2224 5.66764 21.4171C5.72248 22.6095 5.91125 23.4233 6.18798 24.1355C6.47428 24.8721 6.85696 25.497 7.47973 26.1195C8.10203 26.7425 8.72691 27.1261 9.46308 27.4122C10.1757 27.6892 10.9898 27.8779 12.1819 27.9325C13.3766 27.9869 13.7581 28.0002 16.7996 28.0002C19.8416 28.0002 20.2222 27.9869 21.4169 27.9325C22.6092 27.8779 23.424 27.6892 24.1366 27.4122C24.873 27.1261 25.497 26.7425 26.1193 26.1195C26.7423 25.497 27.125 24.8721 27.412 24.1357C27.6873 23.4233 27.8763 22.6092 27.9323 21.4173C27.986 20.2227 28 19.8419 28 16.8001C28 13.7583 27.986 13.3766 27.9323 12.1819C27.8763 10.9896 27.6873 10.1757 27.412 9.46355C27.125 8.72691 26.7423 8.10203 26.1193 7.4795C25.4963 6.85649 24.8733 6.47382 24.1359 6.18798C23.4219 5.91101 22.6076 5.72224 21.4152 5.66764C20.2206 5.61328 19.8402 5.59998 16.7975 5.59998H16.801ZM15.7963 7.61833C16.0945 7.61786 16.4272 7.61833 16.801 7.61833C19.7915 7.61833 20.1459 7.62906 21.3268 7.68273C22.4188 7.73266 23.0115 7.91513 23.4063 8.06843C23.929 8.27144 24.3016 8.51411 24.6934 8.90611C25.0854 9.29811 25.328 9.67145 25.5315 10.1941C25.6848 10.5885 25.8675 11.1811 25.9172 12.2731C25.9709 13.4538 25.9826 13.8085 25.9826 16.7975C25.9826 19.7866 25.9709 20.1412 25.9172 21.3219C25.8673 22.4139 25.6848 23.0066 25.5315 23.4009C25.3285 23.9236 25.0854 24.2958 24.6934 24.6875C24.3014 25.0795 23.9292 25.3222 23.4063 25.5252C23.012 25.6792 22.4188 25.8612 21.3268 25.9112C20.1461 25.9648 19.7915 25.9765 16.801 25.9765C13.8104 25.9765 13.4559 25.9648 12.2752 25.9112C11.1832 25.8608 10.5906 25.6783 10.1955 25.525C9.67285 25.322 9.29951 25.0793 8.90751 24.6873C8.51551 24.2953 8.27284 23.9229 8.06937 23.4C7.91607 23.0057 7.73336 22.413 7.68366 21.321C7.63 20.1403 7.61926 19.7856 7.61926 16.7947C7.61926 13.8038 7.63 13.451 7.68366 12.2703C7.7336 11.1783 7.91607 10.5857 8.06937 10.1909C8.27237 9.66818 8.51551 9.29485 8.90751 8.90284C9.29951 8.51084 9.67285 8.26817 10.1955 8.0647C10.5903 7.9107 11.1832 7.7287 12.2752 7.67853C13.3085 7.63186 13.7089 7.61786 15.7963 7.61553V7.61833ZM22.7796 9.47802C22.0375 9.47802 21.4355 10.0793 21.4355 10.8216C21.4355 11.5636 22.0375 12.1656 22.7796 12.1656C23.5216 12.1656 24.1236 11.5636 24.1236 10.8216C24.1236 10.0796 23.5216 9.47755 22.7796 9.47755V9.47802ZM16.801 11.0484C13.6246 11.0484 11.0493 13.6237 11.0493 16.8001C11.0493 19.9765 13.6246 22.5507 16.801 22.5507C19.9774 22.5507 22.5518 19.9765 22.5518 16.8001C22.5518 13.6237 19.9772 11.0484 16.8008 11.0484H16.801ZM16.801 13.0667C18.8628 13.0667 20.5344 14.7381 20.5344 16.8001C20.5344 18.8618 18.8628 20.5335 16.801 20.5335C14.739 20.5335 13.0677 18.8618 13.0677 16.8001C13.0677 14.7381 14.739 13.0667 16.801 13.0667V13.0667Z" fill="white"/>
</svg>
