<svg width="191" height="72" viewBox="0 0 191 72" fill="none" xmlns="http://www.w3.org/2000/svg">
<path d="M61.8772 10.4641C63.0837 22.0543 55.9497 29.1828 55.8612 29.2684C51.6592 33.4689 44.5985 34.3308 40.3458 34.4406C43.6069 31.0431 48.5866 24.6968 48.5866 17.6288C48.5894 17.4305 48.5894 15.4308 47.9017 12.5874C51.5734 10.7859 57.6795 9.61045 61.8772 10.4641ZM45.5618 17.6051C45.5618 23.5465 41.1756 29.1489 38.2451 32.2345C38.1481 27.5249 37.1834 19.5178 32.1856 14.5198C32.0463 14.3778 30.6316 12.9659 28.1355 11.4415C29.456 7.57006 32.9423 2.4231 36.5182 0.052124C45.569 7.39546 45.5647 17.4812 45.5618 17.6051ZM11.2251 10.6245C22.8057 9.42076 29.9424 16.552 30.031 16.6405C34.2315 20.8425 35.0922 27.9047 35.2031 32.1585C31.8056 28.8973 25.4593 23.9176 18.3942 23.9176C18.1875 23.9219 16.1906 23.9233 13.3528 24.6067C11.5485 20.9336 10.3716 14.8279 11.2251 10.6245ZM0.814575 35.9835C8.18347 26.9031 18.2776 26.9539 18.3676 26.9413C24.3091 26.9413 29.9114 31.3276 32.997 34.2566C28.2875 34.3536 20.2803 35.3183 15.2824 40.3161C15.1403 40.4539 13.7256 41.8686 12.2012 44.3647C8.32833 43.0442 3.18267 39.558 0.814575 35.9835ZM11.3868 61.2766C10.1802 49.6863 17.3142 42.5579 17.4028 42.4722C21.6047 38.2702 28.6655 37.4084 32.9196 37.2986C29.6585 40.6961 24.6773 47.0424 24.6773 54.1103C24.6745 54.3086 24.6745 56.3083 25.3622 59.1518C21.6919 60.9561 15.5844 62.1316 11.3868 61.2766ZM36.7446 71.6871C27.6967 64.3449 27.6996 54.2594 27.7024 54.1355C27.7024 48.1941 32.0887 42.5917 35.0192 39.5061C35.1162 44.2157 36.0809 52.2229 41.0787 57.2193C41.2165 57.3614 42.6214 58.7789 45.1259 60.3061C43.8012 64.1775 40.318 69.319 36.7446 71.6871ZM62.0391 61.1164C50.4543 62.3215 43.3205 55.1875 43.2333 55.0989C39.0328 50.8984 38.1721 43.8362 38.0612 39.5821C41.4587 42.8432 47.805 47.8229 54.8701 47.8229H54.9544C55.3974 47.8229 57.2959 47.7793 59.9156 47.1437C61.7185 50.8182 62.8913 56.9173 62.0391 61.1164ZM72.4497 35.7574C65.0808 44.8377 54.991 44.8151 54.8967 44.7996C48.9495 44.7996 43.3399 40.405 40.2575 37.4743C44.9588 37.3829 52.966 36.4407 57.9819 31.4244C58.124 31.2866 59.5386 29.8719 61.063 27.3758C64.936 28.6963 70.0815 32.1826 72.4496 35.7571L72.4497 35.7574Z" fill="white"/>
<path d="M89.6224 12.0125C90.5863 12.0125 91.3188 12.1281 91.82 12.3595C92.3212 12.5715 92.7645 12.8125 93.1501 13.0823C93.3814 13.2173 93.5645 13.3233 93.6994 13.4004C93.8537 13.4582 93.9982 13.4872 94.1332 13.4872C94.3259 13.4872 94.4609 13.3811 94.538 13.1691C94.6344 12.957 94.7115 12.639 94.7693 12.2149H95.4343C95.4151 12.5426 95.3861 12.9378 95.3476 13.4004C95.3283 13.8438 95.309 14.4413 95.2898 15.1931C95.2898 15.9256 95.2898 16.8991 95.2898 18.1136H94.6247C94.5669 17.1883 94.3645 16.3015 94.0175 15.4534C93.6705 14.6052 93.1597 13.9112 92.485 13.3715C91.8296 12.8317 90.9622 12.5619 89.8827 12.5619C88.861 12.5619 88.0128 12.8703 87.3381 13.4872C86.6827 14.104 86.355 14.9136 86.355 15.916C86.355 16.7835 86.5767 17.516 87.0201 18.1136C87.4634 18.6919 88.0514 19.222 88.7839 19.7039C89.5357 20.1665 90.3453 20.6677 91.2127 21.2075C92.2151 21.8243 93.1019 22.4412 93.8729 23.058C94.6633 23.6556 95.2801 24.3206 95.7235 25.0531C96.1861 25.7857 96.4174 26.6724 96.4174 27.7133C96.4174 28.947 96.1379 29.9687 95.5789 30.7783C95.0199 31.5879 94.2777 32.1952 93.3525 32.6C92.4272 33.0048 91.4055 33.2072 90.2875 33.2072C89.2658 33.2072 88.4562 33.0915 87.8586 32.8602C87.261 32.6289 86.7502 32.3879 86.3261 32.1373C85.902 31.8675 85.5743 31.7325 85.343 31.7325C85.1502 31.7325 85.0057 31.8385 84.9093 32.0506C84.8322 32.2626 84.7647 32.5807 84.7069 33.0048H84.0418C84.0804 32.6 84.0997 32.1277 84.0997 31.5879C84.1189 31.0289 84.1286 30.306 84.1286 29.4193C84.1479 28.5326 84.1575 27.4145 84.1575 26.0652H84.8225C84.8996 27.2218 85.1117 28.3013 85.4587 29.3037C85.8249 30.306 86.3743 31.1157 87.1068 31.7325C87.8586 32.3301 88.8514 32.6289 90.0851 32.6289C90.7212 32.6289 91.3188 32.5036 91.8778 32.253C92.4561 31.9831 92.9284 31.5687 93.2946 31.0096C93.6609 30.4313 93.844 29.6892 93.844 28.7832C93.844 27.9928 93.6512 27.3085 93.2657 26.7302C92.8995 26.1326 92.379 25.5833 91.7043 25.0821C91.0296 24.5616 90.2393 24.0315 89.3333 23.4917C88.4273 22.9327 87.5791 22.3641 86.7888 21.7858C85.9984 21.2075 85.3623 20.5424 84.8804 19.7906C84.4177 19.0196 84.1864 18.0943 84.1864 17.0148C84.1864 15.8775 84.437 14.9425 84.9382 14.21C85.4587 13.4582 86.1333 12.9089 86.9622 12.5619C87.7911 12.1956 88.6779 12.0125 89.6224 12.0125ZM105.7 17.5063C107.397 17.5063 108.717 18.0268 109.662 19.0677C110.625 20.0894 111.107 21.6894 111.107 23.8676H100.9L100.871 23.3183H108.332C108.37 22.3737 108.293 21.5062 108.1 20.7159C107.907 19.9063 107.599 19.2605 107.175 18.7786C106.77 18.2967 106.24 18.0557 105.585 18.0557C104.698 18.0557 103.908 18.4991 103.214 19.3858C102.539 20.2725 102.134 21.6797 101.999 23.6074L102.086 23.7231C102.047 24.0122 102.018 24.3303 101.999 24.6773C101.98 25.0242 101.97 25.3712 101.97 25.7182C101.97 27.029 102.182 28.1567 102.606 29.1012C103.03 30.0458 103.58 30.7687 104.255 31.2699C104.948 31.7518 105.662 31.9927 106.394 31.9927C106.973 31.9927 107.522 31.906 108.042 31.7325C108.563 31.5397 109.045 31.2313 109.488 30.8072C109.932 30.3831 110.317 29.8145 110.645 29.1012L111.223 29.3326C111.011 29.9687 110.664 30.5856 110.182 31.1831C109.7 31.7807 109.093 32.2723 108.36 32.6578C107.628 33.024 106.78 33.2072 105.816 33.2072C104.428 33.2072 103.233 32.8891 102.23 32.253C101.247 31.6169 100.486 30.7398 99.9462 29.6217C99.4257 28.4844 99.1655 27.1832 99.1655 25.7182C99.1655 24.0218 99.4354 22.5665 99.9751 21.352C100.515 20.1183 101.276 19.1738 102.259 18.5184C103.243 17.8437 104.389 17.5063 105.7 17.5063ZM122.293 17.5063C122.814 17.5063 123.267 17.6124 123.652 17.8244C124.057 18.0364 124.366 18.316 124.578 18.6629C124.809 18.9906 124.925 19.3665 124.925 19.7906C124.925 20.2725 124.77 20.6966 124.462 21.0629C124.173 21.4291 123.778 21.6123 123.277 21.6123C122.872 21.6123 122.515 21.487 122.207 21.2364C121.898 20.9665 121.744 20.5906 121.744 20.1087C121.744 19.7424 121.84 19.434 122.033 19.1834C122.245 18.9135 122.477 18.7015 122.727 18.5473C122.592 18.3545 122.39 18.2581 122.12 18.2581C121.522 18.2581 120.973 18.4413 120.472 18.8075C119.971 19.1545 119.547 19.6075 119.2 20.1665C118.853 20.7255 118.583 21.3231 118.39 21.9592C118.197 22.5761 118.101 23.1544 118.101 23.6941V29.8241C118.101 30.7687 118.371 31.4048 118.91 31.7325C119.469 32.0409 120.221 32.1952 121.166 32.1952V32.8024C120.722 32.7831 120.096 32.7638 119.286 32.7445C118.477 32.706 117.619 32.6867 116.713 32.6867C116.057 32.6867 115.402 32.706 114.747 32.7445C114.11 32.7638 113.629 32.7831 113.301 32.8024V32.1952C114.091 32.1952 114.65 32.0506 114.978 31.7614C115.325 31.4723 115.498 30.9229 115.498 30.1133V21.0629C115.498 20.1954 115.344 19.5593 115.036 19.1545C114.727 18.7304 114.149 18.5184 113.301 18.5184V17.9111C113.918 17.969 114.515 17.9979 115.094 17.9979C115.653 17.9979 116.183 17.969 116.684 17.9111C117.204 17.834 117.677 17.728 118.101 17.5931V21.2075C118.313 20.6484 118.612 20.0894 118.997 19.5304C119.402 18.9521 119.884 18.4702 120.443 18.0846C121.002 17.6991 121.619 17.5063 122.293 17.5063ZM132.639 17.5063C134.335 17.5063 135.655 18.0268 136.6 19.0677C137.564 20.0894 138.046 21.6894 138.046 23.8676H127.839L127.81 23.3183H135.27C135.308 22.3737 135.231 21.5062 135.039 20.7159C134.846 19.9063 134.537 19.2605 134.113 18.7786C133.709 18.2967 133.178 18.0557 132.523 18.0557C131.636 18.0557 130.846 18.4991 130.152 19.3858C129.477 20.2725 129.072 21.6797 128.938 23.6074L129.024 23.7231C128.986 24.0122 128.957 24.3303 128.938 24.6773C128.918 25.0242 128.909 25.3712 128.909 25.7182C128.909 27.029 129.121 28.1567 129.545 29.1012C129.969 30.0458 130.518 30.7687 131.193 31.2699C131.887 31.7518 132.6 31.9927 133.333 31.9927C133.911 31.9927 134.46 31.906 134.981 31.7325C135.501 31.5397 135.983 31.2313 136.427 30.8072C136.87 30.3831 137.255 29.8145 137.583 29.1012L138.161 29.3326C137.949 29.9687 137.602 30.5856 137.12 31.1831C136.639 31.7807 136.031 32.2723 135.299 32.6578C134.566 33.024 133.718 33.2072 132.754 33.2072C131.366 33.2072 130.171 32.8891 129.169 32.253C128.186 31.6169 127.424 30.7398 126.885 29.6217C126.364 28.4844 126.104 27.1832 126.104 25.7182C126.104 24.0218 126.374 22.5665 126.914 21.352C127.453 20.1183 128.215 19.1738 129.198 18.5184C130.181 17.8437 131.328 17.5063 132.639 17.5063ZM149.955 17.5063C150.687 17.5063 151.294 17.6027 151.776 17.7955C152.278 17.9883 152.692 18.2581 153.02 18.6051C153.386 18.9906 153.646 19.4726 153.8 20.0509C153.955 20.6292 154.032 21.4099 154.032 22.393V30.1133C154.032 30.9229 154.196 31.4723 154.523 31.7614C154.87 32.0506 155.439 32.1952 156.229 32.1952V32.8024C155.902 32.7831 155.4 32.7638 154.726 32.7445C154.051 32.706 153.396 32.6867 152.759 32.6867C152.123 32.6867 151.497 32.706 150.88 32.7445C150.282 32.7638 149.829 32.7831 149.521 32.8024V32.1952C150.215 32.1952 150.706 32.0506 150.996 31.7614C151.285 31.4723 151.429 30.9229 151.429 30.1133V21.7568C151.429 21.1593 151.381 20.6099 151.285 20.1087C151.188 19.6075 150.967 19.2027 150.62 18.8943C150.292 18.5858 149.781 18.4316 149.087 18.4316C148.278 18.4316 147.564 18.6629 146.948 19.1256C146.35 19.5882 145.878 20.2243 145.531 21.034C145.203 21.8243 145.039 22.711 145.039 23.6941V30.1133C145.039 30.9229 145.184 31.4723 145.473 31.7614C145.762 32.0506 146.254 32.1952 146.948 32.1952V32.8024C146.639 32.7831 146.176 32.7638 145.56 32.7445C144.962 32.706 144.345 32.6867 143.709 32.6867C143.073 32.6867 142.418 32.706 141.743 32.7445C141.068 32.7638 140.567 32.7831 140.239 32.8024V32.1952C141.03 32.1952 141.589 32.0506 141.916 31.7614C142.263 31.4723 142.437 30.9229 142.437 30.1133V21.0629C142.437 20.1954 142.283 19.5593 141.974 19.1545C141.666 18.7304 141.087 18.5184 140.239 18.5184V17.9111C140.856 17.969 141.454 17.9979 142.032 17.9979C142.591 17.9979 143.121 17.969 143.622 17.9111C144.143 17.834 144.615 17.728 145.039 17.5931V21.0051C145.54 19.6942 146.234 18.7882 147.121 18.287C148.027 17.7666 148.972 17.5063 149.955 17.5063ZM160.789 10.6824C161.29 10.6824 161.723 10.8655 162.09 11.2318C162.456 11.598 162.639 12.0318 162.639 12.533C162.639 13.0342 162.456 13.4679 162.09 13.8341C161.723 14.2004 161.29 14.3835 160.789 14.3835C160.287 14.3835 159.854 14.2004 159.487 13.8341C159.121 13.4679 158.938 13.0342 158.938 12.533C158.938 12.0318 159.121 11.598 159.487 11.2318C159.854 10.8655 160.287 10.6824 160.789 10.6824ZM162.292 17.5931V30.1133C162.292 30.9229 162.456 31.4723 162.784 31.7614C163.131 32.0506 163.699 32.1952 164.49 32.1952V32.8024C164.162 32.7831 163.661 32.7638 162.986 32.7445C162.331 32.706 161.666 32.6867 160.991 32.6867C160.336 32.6867 159.67 32.706 158.996 32.7445C158.321 32.7638 157.82 32.7831 157.492 32.8024V32.1952C158.283 32.1952 158.842 32.0506 159.169 31.7614C159.516 31.4723 159.69 30.9229 159.69 30.1133V21.0629C159.69 20.1954 159.536 19.5593 159.227 19.1545C158.919 18.7304 158.34 18.5184 157.492 18.5184V17.9111C158.109 17.969 158.707 17.9979 159.285 17.9979C159.844 17.9979 160.374 17.969 160.875 17.9111C161.396 17.834 161.868 17.728 162.292 17.5931ZM170.619 13.1113V17.9401H174.898V18.5184H170.619V29.7085C170.619 30.6145 170.783 31.2506 171.11 31.6169C171.438 31.9831 171.891 32.1662 172.469 32.1662C173.048 32.1662 173.549 31.9349 173.973 31.4723C174.397 30.9904 174.763 30.1904 175.072 29.0723L175.65 29.2169C175.457 30.335 175.072 31.2795 174.493 32.0506C173.934 32.8216 173.067 33.2072 171.891 33.2072C171.236 33.2072 170.696 33.1204 170.272 32.9469C169.848 32.7927 169.472 32.5614 169.144 32.253C168.72 31.8096 168.421 31.2795 168.248 30.6627C168.093 30.0458 168.016 29.2265 168.016 28.2049V18.5184H165.241V17.9401H168.016V13.5161C168.498 13.4968 168.961 13.4582 169.404 13.4004C169.848 13.3426 170.252 13.2462 170.619 13.1113ZM189.631 17.9111V18.4894C189.265 18.528 188.927 18.6919 188.619 18.981C188.31 19.2702 188.021 19.781 187.751 20.5135L183.009 32.9469H182.518L177.197 20.1376C176.831 19.3858 176.465 18.9328 176.099 18.7786C175.752 18.6051 175.462 18.5184 175.231 18.5184V17.9111C175.655 17.969 176.099 18.0172 176.561 18.0557C177.024 18.075 177.525 18.0846 178.065 18.0846C178.662 18.0846 179.289 18.0654 179.944 18.0268C180.619 17.9883 181.245 17.9497 181.824 17.9111V18.5184C181.342 18.5184 180.908 18.5569 180.523 18.634C180.156 18.6919 179.925 18.8943 179.829 19.2412C179.732 19.5689 179.848 20.1376 180.176 20.9472L183.732 29.7663L183.559 29.8241L186.855 21.2075C187.106 20.5713 187.202 20.0701 187.144 19.7039C187.106 19.3183 186.913 19.0292 186.566 18.8364C186.219 18.6437 185.698 18.528 185.004 18.4894V17.9111C185.351 17.9304 185.65 17.9497 185.901 17.969C186.151 17.969 186.392 17.9786 186.624 17.9979C186.874 17.9979 187.144 17.9979 187.433 17.9979C187.877 17.9979 188.272 17.9883 188.619 17.969C188.985 17.9497 189.322 17.9304 189.631 17.9111ZM183.009 32.9469L182.026 35.4625C181.833 35.9445 181.631 36.3493 181.419 36.677C181.226 37.0047 181.014 37.2746 180.783 37.4866C180.474 37.7757 180.108 37.9685 179.684 38.0649C179.26 38.1806 178.874 38.2384 178.527 38.2384C178.161 38.2384 177.824 38.1709 177.515 38.036C177.226 37.901 176.995 37.6986 176.821 37.4288C176.648 37.1782 176.561 36.8697 176.561 36.5035C176.561 36.0408 176.696 35.665 176.966 35.3758C177.236 35.1059 177.612 34.971 178.094 34.971C178.499 34.971 178.846 35.0867 179.135 35.318C179.424 35.5493 179.568 35.8866 179.568 36.33C179.568 36.6577 179.491 36.9276 179.337 37.1396C179.183 37.3517 179 37.5155 178.788 37.6312C178.826 37.6504 178.855 37.6601 178.874 37.6601C178.913 37.6601 178.942 37.6601 178.961 37.6601C179.482 37.6601 179.944 37.477 180.349 37.1107C180.754 36.7637 181.111 36.1951 181.419 35.4047L182.46 32.7156L183.009 32.9469ZM89.6224 39.0125C90.5863 39.0125 91.3188 39.1281 91.82 39.3595C92.3212 39.5715 92.7645 39.8125 93.1501 40.0823C93.3814 40.2173 93.5645 40.3233 93.6994 40.4004C93.8537 40.4582 93.9982 40.4872 94.1332 40.4872C94.3259 40.4872 94.4609 40.3811 94.538 40.1691C94.6344 39.957 94.7115 39.639 94.7693 39.2149H95.4343C95.4151 39.5426 95.3861 39.9378 95.3476 40.4004C95.3283 40.8438 95.309 41.4413 95.2898 42.1931C95.2898 42.9256 95.2898 43.8991 95.2898 45.1136H94.6247C94.5669 44.1883 94.3645 43.3015 94.0175 42.4534C93.6705 41.6052 93.1597 40.9112 92.485 40.3715C91.8296 39.8317 90.9622 39.5619 89.8827 39.5619C88.861 39.5619 88.0128 39.8703 87.3381 40.4872C86.6827 41.104 86.355 41.9136 86.355 42.916C86.355 43.7835 86.5767 44.516 87.0201 45.1136C87.4634 45.6919 88.0514 46.222 88.7839 46.7039C89.5357 47.1665 90.3453 47.6677 91.2127 48.2075C92.2151 48.8243 93.1019 49.4412 93.8729 50.058C94.6633 50.6556 95.2801 51.3206 95.7235 52.0531C96.1861 52.7857 96.4174 53.6724 96.4174 54.7133C96.4174 55.947 96.1379 56.9687 95.5789 57.7783C95.0199 58.5879 94.2777 59.1952 93.3525 59.6C92.4272 60.0048 91.4055 60.2072 90.2875 60.2072C89.2658 60.2072 88.4562 60.0915 87.8586 59.8602C87.261 59.6289 86.7502 59.3879 86.3261 59.1373C85.902 58.8675 85.5743 58.7325 85.343 58.7325C85.1502 58.7325 85.0057 58.8385 84.9093 59.0506C84.8322 59.2626 84.7647 59.5807 84.7069 60.0048H84.0418C84.0804 59.6 84.0997 59.1277 84.0997 58.5879C84.1189 58.0289 84.1286 57.306 84.1286 56.4193C84.1479 55.5326 84.1575 54.4145 84.1575 53.0652H84.8225C84.8996 54.2218 85.1117 55.3013 85.4587 56.3037C85.8249 57.306 86.3743 58.1157 87.1068 58.7325C87.8586 59.3301 88.8514 59.6289 90.0851 59.6289C90.7212 59.6289 91.3188 59.5036 91.8778 59.253C92.4561 58.9831 92.9284 58.5687 93.2946 58.0096C93.6609 57.4313 93.844 56.6892 93.844 55.7832C93.844 54.9928 93.6512 54.3085 93.2657 53.7302C92.8995 53.1326 92.379 52.5833 91.7043 52.0821C91.0296 51.5616 90.2393 51.0315 89.3333 50.4917C88.4273 49.9327 87.5791 49.3641 86.7888 48.7858C85.9984 48.2075 85.3623 47.5424 84.8804 46.7906C84.4177 46.0196 84.1864 45.0943 84.1864 44.0148C84.1864 42.8775 84.437 41.9425 84.9382 41.21C85.4587 40.4582 86.1333 39.9089 86.9622 39.5619C87.7911 39.1956 88.6779 39.0125 89.6224 39.0125ZM103.271 44.5931V62.3469C103.271 63.1758 103.512 63.7252 103.994 63.995C104.495 64.2842 105.18 64.4288 106.047 64.4288V65.036C105.623 65.0167 105.035 64.9878 104.283 64.9492C103.532 64.93 102.732 64.9203 101.884 64.9203C101.286 64.9203 100.688 64.93 100.091 64.9492C99.5125 64.9878 99.0691 65.0167 98.7607 65.036V64.4288C99.4546 64.4288 99.9462 64.3035 100.235 64.0529C100.525 63.8023 100.669 63.33 100.669 62.636V48.0629C100.669 47.1954 100.515 46.5593 100.206 46.1545C99.898 45.7304 99.3197 45.5184 98.4715 45.5184V44.9111C99.0884 44.969 99.686 44.9979 100.264 44.9979C100.823 44.9979 101.353 44.969 101.855 44.9111C102.375 44.834 102.847 44.728 103.271 44.5931ZM107.898 44.5063C108.919 44.5063 109.835 44.7858 110.645 45.3449C111.454 45.8846 112.091 46.6846 112.553 47.7448C113.035 48.805 113.276 50.1158 113.276 51.6773C113.276 52.7182 113.151 53.7495 112.9 54.7712C112.65 55.7735 112.254 56.6892 111.715 57.5181C111.194 58.3277 110.51 58.9831 109.662 59.4843C108.833 59.9662 107.83 60.2072 106.654 60.2072C105.748 60.2072 104.958 59.9951 104.283 59.571C103.628 59.147 103.185 58.6361 102.953 58.0386L103.243 57.6337C103.512 58.1735 103.898 58.6265 104.399 58.9927C104.92 59.359 105.565 59.5421 106.336 59.5421C107.416 59.5421 108.254 59.2048 108.852 58.5301C109.45 57.8554 109.864 56.9591 110.095 55.841C110.346 54.7037 110.471 53.4507 110.471 52.0821C110.471 50.5399 110.346 49.2773 110.095 48.2942C109.845 47.3111 109.469 46.5786 108.968 46.0967C108.466 45.6147 107.85 45.3738 107.117 45.3738C106.173 45.3738 105.315 45.769 104.544 46.5593C103.773 47.3304 103.281 48.5062 103.069 50.0869L102.722 49.6821C102.934 48.0436 103.512 46.7713 104.457 45.8653C105.421 44.9593 106.568 44.5063 107.898 44.5063ZM124.468 44.5063C124.988 44.5063 125.441 44.6124 125.827 44.8244C126.232 45.0364 126.54 45.316 126.752 45.6629C126.983 45.9906 127.099 46.3665 127.099 46.7906C127.099 47.2725 126.945 47.6966 126.636 48.0629C126.347 48.4291 125.952 48.6123 125.451 48.6123C125.046 48.6123 124.689 48.487 124.381 48.2364C124.073 47.9665 123.918 47.5906 123.918 47.1087C123.918 46.7424 124.015 46.434 124.207 46.1834C124.42 45.9135 124.651 45.7015 124.901 45.5473C124.766 45.3545 124.564 45.2581 124.294 45.2581C123.697 45.2581 123.147 45.4413 122.646 45.8075C122.145 46.1545 121.721 46.6075 121.374 47.1665C121.027 47.7255 120.757 48.3231 120.564 48.9592C120.371 49.5761 120.275 50.1544 120.275 50.6941V56.8241C120.275 57.7687 120.545 58.4048 121.085 58.7325C121.644 59.0409 122.395 59.1952 123.34 59.1952V59.8024C122.897 59.7831 122.27 59.7638 121.461 59.7445C120.651 59.706 119.793 59.6867 118.887 59.6867C118.232 59.6867 117.576 59.706 116.921 59.7445C116.285 59.7638 115.803 59.7831 115.475 59.8024V59.1952C116.265 59.1952 116.825 59.0506 117.152 58.7614C117.499 58.4723 117.673 57.9229 117.673 57.1133V48.0629C117.673 47.1954 117.518 46.5593 117.21 46.1545C116.902 45.7304 116.323 45.5184 115.475 45.5184V44.9111C116.092 44.969 116.69 44.9979 117.268 44.9979C117.827 44.9979 118.357 44.969 118.858 44.9111C119.379 44.834 119.851 44.728 120.275 44.5931V48.2075C120.487 47.6484 120.786 47.0894 121.171 46.5304C121.576 45.9521 122.058 45.4702 122.617 45.0846C123.176 44.6991 123.793 44.5063 124.468 44.5063ZM131.648 37.6824C132.149 37.6824 132.583 37.8655 132.949 38.2318C133.315 38.598 133.498 39.0318 133.498 39.533C133.498 40.0342 133.315 40.4679 132.949 40.8341C132.583 41.2004 132.149 41.3835 131.648 41.3835C131.146 41.3835 130.713 41.2004 130.346 40.8341C129.98 40.4679 129.797 40.0342 129.797 39.533C129.797 39.0318 129.98 38.598 130.346 38.2318C130.713 37.8655 131.146 37.6824 131.648 37.6824ZM133.151 44.5931V57.1133C133.151 57.9229 133.315 58.4723 133.643 58.7614C133.99 59.0506 134.558 59.1952 135.349 59.1952V59.8024C135.021 59.7831 134.52 59.7638 133.845 59.7445C133.19 59.706 132.525 59.6867 131.85 59.6867C131.195 59.6867 130.53 59.706 129.855 59.7445C129.18 59.7638 128.679 59.7831 128.351 59.8024V59.1952C129.142 59.1952 129.701 59.0506 130.028 58.7614C130.375 58.4723 130.549 57.9229 130.549 57.1133V48.0629C130.549 47.1954 130.395 46.5593 130.086 46.1545C129.778 45.7304 129.2 45.5184 128.351 45.5184V44.9111C128.968 44.969 129.566 44.9979 130.144 44.9979C130.703 44.9979 131.233 44.969 131.734 44.9111C132.255 44.834 132.727 44.728 133.151 44.5931ZM146.538 44.5063C147.27 44.5063 147.878 44.6027 148.36 44.7955C148.861 44.9883 149.275 45.2581 149.603 45.6051C149.969 45.9906 150.229 46.4726 150.384 47.0509C150.538 47.6292 150.615 48.4099 150.615 49.393V57.1133C150.615 57.9229 150.779 58.4723 151.107 58.7614C151.454 59.0506 152.022 59.1952 152.813 59.1952V59.8024C152.485 59.7831 151.984 59.7638 151.309 59.7445C150.634 59.706 149.979 59.6867 149.343 59.6867C148.707 59.6867 148.08 59.706 147.463 59.7445C146.866 59.7638 146.413 59.7831 146.104 59.8024V59.1952C146.798 59.1952 147.29 59.0506 147.579 58.7614C147.868 58.4723 148.013 57.9229 148.013 57.1133V48.7568C148.013 48.1593 147.964 47.6099 147.868 47.1087C147.772 46.6075 147.55 46.2027 147.203 45.8943C146.875 45.5858 146.364 45.4316 145.671 45.4316C144.861 45.4316 144.148 45.6629 143.531 46.1256C142.933 46.5882 142.461 47.2243 142.114 48.034C141.786 48.8243 141.622 49.711 141.622 50.6941V57.1133C141.622 57.9229 141.767 58.4723 142.056 58.7614C142.345 59.0506 142.837 59.1952 143.531 59.1952V59.8024C143.222 59.7831 142.76 59.7638 142.143 59.7445C141.545 59.706 140.928 59.6867 140.292 59.6867C139.656 59.6867 139.001 59.706 138.326 59.7445C137.651 59.7638 137.15 59.7831 136.823 59.8024V59.1952C137.613 59.1952 138.172 59.0506 138.5 58.7614C138.847 58.4723 139.02 57.9229 139.02 57.1133V48.0629C139.02 47.1954 138.866 46.5593 138.557 46.1545C138.249 45.7304 137.671 45.5184 136.823 45.5184V44.9111C137.439 44.969 138.037 44.9979 138.615 44.9979C139.174 44.9979 139.704 44.969 140.206 44.9111C140.726 44.834 141.198 44.728 141.622 44.5931V48.0051C142.124 46.6942 142.818 45.7882 143.704 45.287C144.61 44.7666 145.555 44.5063 146.538 44.5063ZM159.114 65.2384C158.092 65.2384 157.128 65.1324 156.222 64.9203C155.316 64.7083 154.583 64.3709 154.024 63.9083C153.485 63.4649 153.215 62.8963 153.215 62.2023C153.215 61.5276 153.485 60.9493 154.024 60.4674C154.564 59.9855 155.297 59.6192 156.222 59.3686L156.396 59.8313C155.971 59.9662 155.634 60.2361 155.383 60.6409C155.133 61.0457 155.008 61.4987 155.008 61.9999C155.008 62.8866 155.412 63.5613 156.222 64.024C157.051 64.5059 158.121 64.7468 159.432 64.7468C160.299 64.7468 161.147 64.6312 161.976 64.3999C162.805 64.1878 163.489 63.8216 164.029 63.3011C164.569 62.7806 164.839 62.0963 164.839 61.2481C164.839 60.612 164.607 60.0915 164.145 59.6867C163.701 59.2626 162.815 59.0506 161.485 59.0506H159.345C158.728 59.0506 158.13 59.0024 157.552 58.906C156.974 58.8096 156.502 58.6072 156.135 58.2988C155.769 57.9904 155.586 57.5181 155.586 56.882C155.586 56.2265 155.856 55.6001 156.396 55.0025C156.935 54.3856 157.928 53.7591 159.374 53.123L159.721 53.3832C159.065 53.7302 158.497 54.0868 158.015 54.4531C157.533 54.8001 157.292 55.2145 157.292 55.6964C157.292 56.3133 157.755 56.6217 158.68 56.6217H162.294C163.104 56.6217 163.846 56.7374 164.521 56.9687C165.215 57.2 165.774 57.5663 166.198 58.0675C166.622 58.5687 166.834 59.2241 166.834 60.0337C166.834 60.9397 166.545 61.7879 165.966 62.5782C165.388 63.3686 164.521 64.0047 163.364 64.4866C162.227 64.9878 160.81 65.2384 159.114 65.2384ZM159.258 53.6435C158.314 53.6435 157.456 53.4893 156.685 53.1808C155.914 52.8531 155.306 52.3519 154.863 51.6773C154.42 51.0026 154.198 50.1351 154.198 49.0749C154.198 48.0147 154.42 47.1472 154.863 46.4726C155.306 45.7979 155.914 45.3063 156.685 44.9979C157.456 44.6702 158.314 44.5063 159.258 44.5063C160.222 44.5063 161.08 44.6702 161.832 44.9979C162.603 45.3063 163.21 45.7979 163.653 46.4726C164.097 47.1472 164.318 48.0147 164.318 49.0749C164.318 50.1351 164.097 51.0026 163.653 51.6773C163.21 52.3519 162.603 52.8531 161.832 53.1808C161.08 53.4893 160.222 53.6435 159.258 53.6435ZM159.258 53.123C159.991 53.123 160.559 52.8339 160.964 52.2556C161.388 51.6773 161.6 50.617 161.6 49.0749C161.6 47.5328 161.388 46.4726 160.964 45.8943C160.559 45.316 159.991 45.0268 159.258 45.0268C158.545 45.0268 157.976 45.316 157.552 45.8943C157.128 46.4726 156.916 47.5328 156.916 49.0749C156.916 50.617 157.128 51.6773 157.552 52.2556C157.976 52.8339 158.545 53.123 159.258 53.123ZM163.422 46.9063L162.901 46.7039C163.171 46.0485 163.634 45.4702 164.289 44.969C164.945 44.4678 165.629 44.2172 166.342 44.2172C166.843 44.2172 167.248 44.3618 167.557 44.6509C167.865 44.9208 168.019 45.3352 168.019 45.8943C168.019 46.4918 167.855 46.9159 167.528 47.1665C167.219 47.3978 166.901 47.5135 166.574 47.5135C166.284 47.5135 166.015 47.4171 165.764 47.2243C165.513 47.0123 165.369 46.6846 165.33 46.2412C165.292 45.7979 165.427 45.2292 165.735 44.5353L166.111 44.622C165.301 44.9304 164.723 45.2581 164.376 45.6051C164.029 45.9328 163.711 46.3665 163.422 46.9063ZM174.104 44.5063C174.875 44.5063 175.531 44.6316 176.07 44.8822C176.61 45.1328 177.005 45.3641 177.256 45.5762C177.892 46.0967 178.278 45.7497 178.412 44.5353H179.078C179.039 45.075 179.01 45.7208 178.991 46.4726C178.971 47.2051 178.962 48.1978 178.962 49.4508H178.297C178.181 48.7376 177.979 48.0436 177.69 47.3689C177.42 46.6942 177.015 46.1449 176.475 45.7208C175.935 45.2774 175.232 45.0557 174.364 45.0557C173.69 45.0557 173.121 45.2485 172.658 45.634C172.215 46.0003 171.993 46.5497 171.993 47.2822C171.993 47.8605 172.167 48.3617 172.514 48.7858C172.861 49.1906 173.314 49.5761 173.873 49.9424C174.432 50.2893 175.039 50.6749 175.694 51.099C176.427 51.5616 177.092 52.0339 177.69 52.5158C178.287 52.9977 178.759 53.5278 179.106 54.1061C179.473 54.6844 179.656 55.3687 179.656 56.1591C179.656 57.0458 179.424 57.788 178.962 58.3855C178.499 58.9831 177.892 59.4361 177.14 59.7445C176.408 60.053 175.598 60.2072 174.711 60.2072C174.287 60.2072 173.882 60.1686 173.497 60.0915C173.131 60.0337 172.774 59.9373 172.427 59.8024C172.234 59.706 172.032 59.5903 171.82 59.4554C171.627 59.3205 171.434 59.1759 171.242 59.0217C171.049 58.8675 170.875 58.8771 170.721 59.0506C170.567 59.2048 170.451 59.5229 170.374 60.0048H169.709C169.748 59.3879 169.777 58.6361 169.796 57.7494C169.815 56.8627 169.825 55.6868 169.825 54.2218H170.49C170.625 55.3013 170.817 56.2458 171.068 57.0554C171.319 57.8651 171.714 58.5012 172.254 58.9638C172.793 59.4072 173.545 59.6289 174.509 59.6289C174.894 59.6289 175.28 59.5421 175.666 59.3686C176.07 59.1952 176.408 58.906 176.678 58.5012C176.947 58.0964 177.082 57.5566 177.082 56.882C177.082 56.0338 176.774 55.3398 176.157 54.8001C175.54 54.2603 174.76 53.6917 173.815 53.0941C173.121 52.6507 172.466 52.2074 171.849 51.764C171.251 51.3206 170.76 50.8194 170.374 50.2604C170.008 49.7014 169.825 49.0267 169.825 48.2364C169.825 47.3689 170.017 46.6653 170.403 46.1256C170.808 45.5666 171.338 45.1617 171.993 44.9111C172.649 44.6413 173.352 44.5063 174.104 44.5063Z" fill="white"/>
</svg>
