<svg width="108" height="28" viewBox="0 0 108 28" fill="none" xmlns="http://www.w3.org/2000/svg">
<path d="M1.38892 27.3628C0.98909 27.3628 0.664978 27.0387 0.664978 26.6389C0.664978 26.239 0.98909 25.9149 1.38892 25.9149H11.3333C12.0315 25.8483 12.7244 25.846 13.4212 25.8445C14.2731 25.843 15.1326 25.8407 15.9906 25.7051C17.0053 25.5461 17.9534 25.3129 18.8242 24.8979C18.4297 24.2557 18.129 23.4796 17.9541 22.5497C17.7224 21.3305 17.9617 19.9826 18.4713 18.9383C18.7553 18.3575 19.1301 17.8547 19.5663 17.5018C20.0601 17.1004 20.6288 16.8884 21.2383 16.9444C21.7215 16.9899 22.2008 17.2034 22.6552 17.6214C23.5836 18.4771 23.9145 19.4835 23.8623 20.5058C23.8009 21.6766 23.2163 22.8397 22.4598 23.7811C22.0077 24.3437 21.5352 24.814 21.0392 25.207C21.3194 25.4062 21.6253 25.5614 21.9494 25.6735C22.6279 25.9105 23.5238 25.9431 24.4514 25.8598C25.6978 25.7477 26.9859 25.4258 27.9288 25.0942C28.7686 24.7996 29.5683 24.399 30.3278 23.8273C30.1559 23.5016 29.9969 23.1503 29.85 22.7762C29.4789 21.8228 29.1987 20.7042 29.0193 19.4003C28.6952 17.0248 29.1768 14.3266 30.0491 12.5486C30.3944 11.8428 30.8109 11.2643 31.2744 10.8803C31.8332 10.4169 32.4557 10.2185 33.1198 10.3684C33.6499 10.4896 34.1694 10.8387 34.654 11.4634C35.6998 12.8113 36.0762 14.3781 36.0164 15.9563C35.9459 17.8275 35.2621 19.7107 34.3716 21.2488C33.6916 22.4249 32.9714 23.357 32.211 24.1038C32.2814 24.1939 32.3541 24.281 32.4261 24.3643C32.8691 24.8671 33.3053 25.2147 33.7778 25.4464C34.2572 25.6819 34.7963 25.8099 35.437 25.875C37.2082 26.0522 38.8386 25.513 40.3569 24.3643C40.7492 24.0674 41.1331 23.7312 41.511 23.3564C41.408 23.1792 41.3065 22.9944 41.2088 22.8028C40.4834 21.3807 39.9366 19.5838 39.6345 17.3672C39.2309 14.407 39.8298 11.047 40.9158 8.83429C41.3406 7.96798 41.8495 7.25995 42.4121 6.79121C43.0709 6.24447 43.8032 6.00744 44.5779 6.18541C45.2042 6.32853 45.8229 6.74653 46.4052 7.49698C47.6933 9.15765 48.1545 11.0865 48.0825 13.0334C47.9954 15.3582 47.142 17.705 46.0363 19.6246C45.1784 21.1156 44.2833 22.4166 43.3421 23.5041C43.8487 24.1697 44.4128 24.6839 45.0156 25.0641C45.9115 25.6267 46.9171 25.8895 47.9196 25.8652C48.9404 25.8418 49.9604 25.5199 50.8562 24.9209C51.7483 24.3242 52.6131 23.4609 53.4529 22.3591C53.3916 22.2326 53.3318 22.1024 53.272 21.9699C52.4269 20.0722 51.7923 17.5877 51.4553 14.4229C51.2183 12.1959 51.325 9.79611 51.6726 7.62353C52.0414 5.3199 52.6859 3.25414 53.4878 1.8919C53.8823 1.21868 54.3632 0.699218 54.894 0.377374C55.278 0.144142 55.6869 0.0138898 56.1102 0.00101761C56.5373 -0.0118558 56.9659 0.0971873 57.3824 0.341025C57.864 0.623477 58.3229 1.09223 58.7356 1.77073C59.9949 3.84638 60.3948 6.24151 60.2721 8.66416C60.1169 11.688 59.143 14.7509 58.0177 17.2531C57.106 19.2795 56.1526 21.0349 55.15 22.482C55.8686 23.7308 56.7023 24.5842 57.605 25.1022C58.7121 25.7376 59.9503 25.83 61.2148 25.5255C62.5847 25.1961 63.9901 24.4056 65.3093 23.3256C65.045 22.8698 64.8012 22.3722 64.5801 21.8293C64.0735 20.5881 63.6865 19.1077 63.4495 17.3674C63.0459 14.4072 63.6449 11.0472 64.7308 8.83453C65.1556 7.96821 65.6645 7.26018 66.2271 6.79145C66.886 6.24471 67.6182 6.00768 68.3929 6.18564C69.0192 6.32876 69.6379 6.74676 70.2202 7.49721C71.5083 9.15788 71.9695 11.0867 71.8975 13.0336C71.8105 15.3584 70.957 17.7052 69.8514 19.6248C69.3432 20.5093 68.8238 21.3241 68.2914 22.064C67.9188 22.5812 67.5425 23.0628 67.157 23.5081C67.3236 23.7269 67.4955 23.9276 67.6742 24.1139C68.698 25.1831 69.8854 25.6806 71.128 25.7836C72.6645 25.9101 74.3032 25.4436 75.8398 24.7C76.3191 24.4683 76.7841 24.1881 77.2346 23.8481C77.034 23.4679 76.8507 23.0537 76.6864 22.6069C76.3517 21.6967 76.0927 20.6313 75.9246 19.4007C75.6005 17.0252 76.0821 14.327 76.9545 12.549C77.2998 11.8432 77.7163 11.2646 78.1797 10.8807C78.7386 10.4173 79.361 10.2189 80.0251 10.3688C80.5552 10.49 81.0747 10.8391 81.5594 11.4638C82.6051 12.8102 82.9777 14.3732 82.9202 15.9512C82.8497 17.8202 82.1637 19.7057 81.2792 21.2475C80.5969 22.4341 79.8729 23.3755 79.1118 24.128L79.1588 24.1878C79.9494 25.1882 80.8073 25.6501 81.7297 25.7743C82.7089 25.9061 83.8069 25.6804 84.992 25.3131C85.3593 25.1988 85.7159 25.0632 86.0612 24.9004C85.6667 24.2598 85.3684 23.4821 85.1911 22.5522C84.9594 21.333 85.1987 19.9851 85.7084 18.9408C85.9923 18.36 86.3672 17.8572 86.8034 17.5043C87.2971 17.1029 87.8658 16.8909 88.4754 16.9469C88.9585 16.9924 89.4379 17.2059 89.8922 17.6239C90.8206 18.4796 91.1516 19.486 91.0993 20.5084C91.038 21.6791 90.4534 22.8422 89.6969 23.7836C89.2463 24.3462 88.7722 24.815 88.2747 25.2095C88.9479 25.6889 89.7726 25.9077 90.6487 25.9282C90.7646 25.9297 92.2352 25.932 93.4385 25.9297C94.22 25.9282 94.8857 25.9259 94.9675 25.9206C94.9818 25.9191 94.9985 25.9191 95.0129 25.9191V25.9176H106.611C107.011 25.9176 107.335 26.2417 107.335 26.6415C107.335 27.0413 107.011 27.3655 106.611 27.3655H95.0129V27.3639C94.8281 27.3677 94.1844 27.3715 93.4385 27.3715C92.2246 27.373 90.7389 27.3715 90.6216 27.37C89.2828 27.3412 88.018 26.9414 87.017 26.0471L87.0079 26.0395C86.4937 26.3129 85.9659 26.5241 85.4191 26.693C84.0568 27.1148 82.7687 27.3715 81.5396 27.2049C80.2553 27.0315 79.0823 26.4143 78.0298 25.0808L78.0192 25.0664C77.5164 25.4375 76.9984 25.7449 76.4668 26.0016C74.7191 26.8483 72.8297 27.3768 71.0153 27.2269C69.4395 27.0981 67.9326 26.4666 66.6345 25.1096C66.4588 24.9248 66.2869 24.7294 66.1203 24.5212C64.6694 25.6904 63.1027 26.5514 61.5443 26.9254C59.9306 27.3146 58.3328 27.1859 56.8834 26.3552C55.9027 25.7925 55 24.9292 54.2147 23.7206C53.3968 24.7179 52.5464 25.5207 51.6581 26.1158C50.5328 26.87 49.2447 27.2736 47.9466 27.3047C46.6692 27.3357 45.3863 27.001 44.2443 26.2824C43.5552 25.85 42.9123 25.2797 42.3338 24.5619C41.9703 24.911 41.5992 25.2298 41.2228 25.5138C39.4138 26.8836 37.4486 27.5219 35.2919 27.3069C34.4847 27.2274 33.788 27.0555 33.142 26.7367C32.487 26.4164 31.9062 25.9605 31.3382 25.3146C31.2602 25.226 31.183 25.1336 31.1088 25.0374C30.2478 25.6705 29.3428 26.1173 28.3963 26.4505C27.3664 26.8125 25.9504 27.1654 24.5699 27.2903C23.4575 27.3895 22.3572 27.341 21.4666 27.0298C20.8442 26.8125 20.2671 26.4853 19.762 26.031C19.6825 26.0726 19.603 26.1143 19.5235 26.1521C18.483 26.6625 17.3796 26.9389 16.2067 27.1237C15.242 27.2736 14.3265 27.2774 13.4169 27.2789C12.7634 27.2804 12.116 27.2827 11.47 27.3441C11.4284 27.3516 11.3852 27.3547 11.3413 27.3547H1.38409L1.38892 27.3628ZM20.0523 24.1438C20.4953 23.8015 20.9209 23.3858 21.3298 22.8769C21.9182 22.1439 22.3718 21.27 22.4157 20.4339C22.4483 19.8205 22.2438 19.2124 21.6736 18.6861C21.4638 18.4922 21.2723 18.3983 21.1019 18.3824H21.0981C20.8936 18.3628 20.6786 18.4551 20.4718 18.6233C20.206 18.8383 19.9637 19.1715 19.7683 19.5729C19.3814 20.3657 19.1981 21.3789 19.37 22.2853C19.5131 23.0343 19.7464 23.6499 20.0523 24.1452L20.0523 24.1438ZM31.4384 22.8299C32.023 22.2113 32.5857 21.4547 33.1226 20.5248C33.9078 19.1662 34.5137 17.5176 34.5735 15.9055C34.6204 14.6424 34.3274 13.3997 33.511 12.3449C33.2467 12.0049 33.0082 11.8239 32.7962 11.7769C32.6084 11.7338 32.4039 11.8148 32.1934 11.989C31.8897 12.2404 31.5997 12.6569 31.3415 13.1832C30.5797 14.7356 30.1617 17.1073 30.4479 19.2079C30.6092 20.3968 30.8621 21.4063 31.1931 22.2568C31.2711 22.4559 31.3521 22.6475 31.4392 22.83L31.4384 22.8299ZM42.5368 22.2241C43.3145 21.2798 44.0642 20.1688 44.7873 18.9095C45.7877 17.1671 46.5639 15.0558 46.6404 12.9854C46.7017 11.3535 46.3238 9.74659 45.2637 8.38047C44.9017 7.91401 44.5632 7.6641 44.2557 7.59367C43.9574 7.52476 43.6424 7.6429 43.3326 7.8996C42.929 8.23432 42.5458 8.78106 42.2089 9.46866C41.2335 11.4549 40.6981 14.4915 41.0639 17.1769C41.3411 19.2163 41.8401 20.8586 42.4966 22.149L42.5368 22.227L42.5368 22.2241ZM54.419 20.9724C55.2058 19.738 55.9661 18.2948 56.7008 16.659C57.7662 14.2926 58.687 11.4066 58.8324 8.58964C58.943 6.43141 58.5992 4.31408 57.5065 2.51565C57.2263 2.05222 56.9385 1.74856 56.6561 1.58347C56.4842 1.48199 56.3138 1.43656 56.1532 1.44262C55.9866 1.44792 55.8147 1.50622 55.6428 1.60921C55.321 1.80458 55.0098 2.15218 54.7349 2.62093C54.0238 3.82952 53.443 5.71666 53.1007 7.84988C52.7713 9.90362 52.6698 12.1708 52.8947 14.2715C53.1916 17.0543 53.7201 19.2633 54.4184 20.9732L54.419 20.9724ZM66.3534 22.2264C66.6139 21.9099 66.8706 21.5752 67.1243 21.2223C67.6309 20.5188 68.1246 19.7441 68.6062 18.908C69.6066 17.1655 70.3828 15.0543 70.4592 12.9839C70.5206 11.352 70.1427 9.74506 69.0825 8.37894C68.7206 7.91247 68.3821 7.66257 68.0746 7.59214C67.7763 7.52323 67.4612 7.64136 67.1515 7.89807C66.7479 8.23279 66.3647 8.77953 66.0277 9.46712C65.0524 11.4534 64.517 14.49 64.8828 17.1753C65.1016 18.7838 65.4583 20.146 65.9233 21.2865C66.0588 21.6197 66.2034 21.9324 66.3557 22.227L66.3534 22.2264ZM78.3515 22.8451C78.9376 22.2226 79.4987 21.4608 80.0341 20.5271C80.8179 19.1648 81.4237 17.5124 81.4835 15.8987C81.5305 14.6379 81.2389 13.3968 80.4234 12.3449C80.1591 12.0049 79.9205 11.8239 79.7085 11.777C79.5207 11.7338 79.3163 11.8148 79.1057 11.989C78.8021 12.2404 78.512 12.6569 78.2538 13.1832C77.492 14.7356 77.074 17.1073 77.3602 19.208C77.5124 20.3264 77.7457 21.2889 78.0478 22.1098C78.144 22.3704 78.2447 22.6149 78.3515 22.8444V22.8451ZM87.2985 24.1446C87.7399 23.8023 88.1671 23.3865 88.576 22.8761C89.1644 22.1431 89.618 21.2692 89.6619 20.4331C89.6944 19.8197 89.49 19.2117 88.9198 18.6854C88.71 18.4915 88.5184 18.3976 88.348 18.3817H88.3443C88.1398 18.362 87.9247 18.4544 87.718 18.6225C87.4522 18.8376 87.2099 19.1708 87.0145 19.5721C86.6275 20.365 86.4443 21.3782 86.6162 22.2846C86.7593 23.0335 86.9925 23.6493 87.2985 24.1446Z" fill="white"/>
</svg>
