<svg width="98" height="29" viewBox="0 0 98 29" fill="none" xmlns="http://www.w3.org/2000/svg">
<path d="M0.88574 11.7751C0.498989 11.7803 0.181355 11.4729 0.174014 11.0862C0.168867 10.6994 0.476213 10.3818 0.862964 10.3744C4.6437 10.3127 7.44716 12.7427 9.95604 14.9177C10.6604 15.5287 11.342 16.1191 11.9906 16.6059C12.5582 17.0308 13.0413 17.3911 13.528 17.6249C13.9809 17.8426 14.4714 17.9624 15.1074 17.9448H15.1405H15.1441C15.7625 17.961 16.2419 17.8448 16.6882 17.6338C17.1712 17.4051 17.6455 17.0573 18.1991 16.6463C18.8719 16.1471 19.5675 15.5427 20.2894 14.9177C22.7966 12.7442 25.5965 10.3165 29.3721 10.3745C33.1478 10.3186 35.9477 12.7465 38.4548 14.9177C39.1769 15.5434 39.8724 16.1478 40.5451 16.6463C41.1002 17.0573 41.5745 17.4073 42.0561 17.6338C42.5024 17.8448 42.984 17.9602 43.6038 17.9448H43.6369H43.6406C44.2751 17.961 44.7633 17.8411 45.2162 17.6249C45.703 17.3911 46.186 17.0309 46.7537 16.6059C47.4022 16.1191 48.0838 15.5287 48.7882 14.9177C51.2954 12.7442 54.0953 10.3165 57.8709 10.3744C61.6466 10.3186 64.4465 12.7465 66.9537 14.9177C67.6581 15.5287 68.3396 16.1191 68.9882 16.6059C69.5558 17.0308 70.0389 17.3911 70.5257 17.6249C70.9786 17.8426 71.469 17.9624 72.105 17.9448H72.1381H72.1418C72.7601 17.961 73.2395 17.8448 73.6858 17.6338C74.1689 17.4051 74.6431 17.0573 75.1968 16.6463C75.8695 16.1471 76.5651 15.5427 77.287 14.9177C79.7942 12.7442 82.5941 10.3165 86.3698 10.3745C90.1454 10.3186 92.9453 12.7465 95.4525 14.9177C96.1745 15.5434 96.87 16.1478 97.5427 16.6463C97.8537 16.8765 97.9185 17.3154 97.6883 17.6264C97.4582 17.9374 97.0192 18.0021 96.7082 17.772C95.9913 17.2397 95.2766 16.6198 94.5348 15.9765C92.2158 13.967 89.6247 11.7201 86.38 11.7722H86.3572C83.1125 11.7193 80.5214 13.9647 78.2024 15.9765C77.4613 16.6191 76.7459 17.2397 76.029 17.772C75.4106 18.2308 74.8798 18.6205 74.2812 18.9014C73.6504 19.1984 72.9762 19.3653 72.1189 19.344C71.2461 19.3653 70.5623 19.1933 69.9196 18.8852C69.3086 18.5918 68.7726 18.1933 68.1469 17.7242C67.444 17.197 66.7521 16.5978 66.0352 15.9765C63.7162 13.967 61.1251 11.7201 57.8804 11.7722H57.8576C54.613 11.7193 52.0219 13.9647 49.7029 15.9765C48.986 16.5985 48.2941 17.1978 47.5912 17.7242C46.964 18.1933 46.4302 18.5918 45.8184 18.8852C45.1773 19.1925 44.492 19.3646 43.6192 19.344C42.7619 19.3653 42.0876 19.1984 41.4568 18.9014C40.8576 18.6183 40.3275 18.2301 39.7091 17.772C38.9922 17.2397 38.2775 16.6198 37.5357 15.9765C35.2167 13.967 32.6256 11.7201 29.3809 11.7722H29.3581C26.1134 11.7193 23.5223 13.9647 21.2033 15.9765C20.4622 16.6191 19.7468 17.2397 19.0299 17.772C18.4115 18.2308 17.8807 18.6205 17.2821 18.9014C16.6513 19.1984 15.9771 19.3653 15.1198 19.344C14.247 19.3653 13.5632 19.1933 12.9205 18.8852C12.3095 18.5918 11.7735 18.1933 11.1478 17.7242C10.4449 17.197 9.75302 16.5978 9.0361 15.9765C6.71714 13.967 4.126 11.7201 0.881335 11.7722L0.88574 11.7751ZM91.5473 16.1059C91.9024 16.2588 92.0657 16.6713 91.9127 17.0249C91.7598 17.3801 91.3473 17.5433 90.9937 17.3904C90.2841 17.083 89.6253 16.983 89.0841 16.9757C89.0525 16.9808 89.0194 16.9845 88.9856 16.986C85.6562 17.1021 85.5423 20.6556 85.435 23.9952C85.4277 24.2268 85.4211 24.4569 85.4122 24.6643C85.4137 24.7047 85.4108 24.7451 85.4049 24.7871C85.2799 25.6252 84.9373 26.3245 84.4601 26.8773C83.9557 27.4626 83.302 27.8787 82.5962 28.1214C81.897 28.3603 81.1433 28.4309 80.4286 28.3236C79.6926 28.2126 78.9897 27.9177 78.4221 27.4273C78.3258 27.345 78.2361 27.2589 78.1515 27.1729C77.2853 26.2788 76.9412 25.1244 77.0398 23.9384C77.1332 22.8032 77.639 21.6369 78.4838 20.6583C78.614 20.5091 78.7493 20.3635 78.8934 20.2245C79.7015 19.443 80.7977 18.6871 82.0065 18.0166C83.3255 17.2843 84.7821 16.6483 86.1452 16.1829C86.3511 16.1123 86.5842 16.0373 86.843 15.9579C87.0922 15.8822 87.3194 15.8175 87.5194 15.763C87.8091 15.6858 88.3576 15.5719 89.0635 15.577C89.7664 15.5822 90.6289 15.7072 91.5509 16.1079L91.5473 16.1059ZM84.863 18.1756C84.1196 18.4932 83.38 18.8535 82.6829 19.2403C81.5764 19.8549 80.5816 20.5365 79.8669 21.2291C79.7507 21.3416 79.6419 21.4577 79.5404 21.5754C78.8941 22.3253 78.5074 23.2054 78.4368 24.0539C78.3721 24.8517 78.5934 25.6156 79.1537 26.1958C79.2117 26.2553 79.2728 26.3134 79.336 26.3678C79.6926 26.6752 80.1455 26.8634 80.6293 26.9355C81.1286 27.009 81.655 26.9619 82.144 26.7928C82.6234 26.6274 83.0645 26.3502 83.3998 25.9598C83.7057 25.6046 83.9248 25.1532 84.0108 24.6054C84.0196 24.3738 84.027 24.1606 84.0336 23.9503C84.1005 21.8929 84.1674 19.7688 84.8608 18.174L84.863 18.1756ZM61.9839 16.1059C62.3391 16.2588 62.5023 16.6713 62.3494 17.0249C62.1964 17.3801 61.784 17.5433 61.4303 17.3904C60.7208 17.083 60.062 16.983 59.5207 16.9757C59.4891 16.9808 59.456 16.9845 59.4222 16.986C56.0928 17.1021 55.979 20.6556 55.8717 23.9952C55.8643 24.2268 55.8577 24.4569 55.8489 24.6643C55.8504 24.7047 55.8474 24.7451 55.8415 24.7871C55.7165 25.6252 55.3739 26.3245 54.8967 26.8773C54.3923 27.4626 53.7387 27.8787 53.0328 28.1214C52.3336 28.3603 51.58 28.4309 50.8652 28.3236C50.1292 28.2126 49.4263 27.9177 48.8587 27.4273C48.7624 27.345 48.6727 27.2589 48.5881 27.1729C47.722 26.2788 47.3779 25.1244 47.4764 23.9384C47.5698 22.8032 48.0757 21.6369 48.9205 20.6583C49.0506 20.5091 49.1859 20.3635 49.33 20.2245C50.1381 19.443 51.2343 18.6871 52.4431 18.0166C53.7622 17.2843 55.2187 16.6483 56.5819 16.1829C56.7878 16.1123 57.0208 16.0373 57.2796 15.9579C57.5289 15.8822 57.7561 15.8175 57.9561 15.763C58.2458 15.6858 58.7943 15.5719 59.5001 15.577C60.203 15.5822 61.0655 15.7072 61.9875 16.1079L61.9839 16.1059ZM55.2996 18.1756C54.5563 18.4932 53.8166 18.8535 53.1196 19.2403C52.013 19.8549 51.0182 20.5365 50.3035 21.2291C50.1873 21.3416 50.0785 21.4577 49.977 21.5754C49.3307 22.3253 48.944 23.2054 48.8734 24.0539C48.8087 24.8517 49.03 25.6156 49.5903 26.1958C49.6484 26.2553 49.7094 26.3134 49.7726 26.3678C50.1292 26.6752 50.5822 26.8634 51.066 26.9355C51.5652 27.009 52.0917 26.9619 52.5806 26.7928C53.06 26.6274 53.5012 26.3502 53.8364 25.9598C54.1423 25.6046 54.3614 25.1532 54.4475 24.6054C54.4563 24.3738 54.4636 24.1606 54.4702 23.9503C54.5372 21.8929 54.6041 19.7688 55.2974 18.174L55.2996 18.1756ZM76.1458 11.0604C76.5009 10.9075 76.9119 11.0707 77.0649 11.4258C77.2178 11.781 77.0546 12.192 76.6994 12.3449C75.7774 12.7456 74.9142 12.8699 74.212 12.8758C73.504 12.8809 72.9577 12.7648 72.668 12.6898C72.468 12.6368 72.2408 12.5721 71.9915 12.4949C71.7335 12.4155 71.4996 12.3405 71.2938 12.2699C69.9321 11.806 68.4741 11.1685 67.155 10.4362C65.9463 9.76488 64.85 9.00976 64.0419 8.22826C63.8993 8.0893 63.7625 7.94519 63.6324 7.79446C62.789 6.81582 62.2832 5.64961 62.1883 4.51441C62.0898 3.32842 62.4346 2.17399 63.3 1.27991C63.3846 1.19388 63.4743 1.10786 63.5706 1.0255C64.1397 0.535074 64.8404 0.238766 65.5771 0.129218C66.2918 0.02187 67.0476 0.0924559 67.7447 0.331412C68.4513 0.574056 69.1042 0.990206 69.6086 1.57548C70.0866 2.1306 70.4292 2.82985 70.5534 3.66575C70.5586 3.70766 70.5623 3.74809 70.5608 3.78853C70.5681 3.99442 70.5748 4.22601 70.5836 4.45762C70.6909 7.79715 70.8049 11.3515 74.1341 11.4668C74.1672 11.4683 74.201 11.472 74.2326 11.4771C74.7738 11.4698 75.4326 11.3698 76.1422 11.0624L76.1458 11.0604ZM67.8359 9.21197C68.5315 9.59872 69.2712 9.95679 70.016 10.2766C69.3219 8.68332 69.2535 6.55763 69.1888 4.5003C69.1815 4.28782 69.1749 4.07679 69.166 3.84518C69.08 3.2974 68.8602 2.84522 68.555 2.49083C68.2198 2.10261 67.7801 1.8232 67.2992 1.65777C66.811 1.49086 66.2838 1.44161 65.7845 1.51513C65.3 1.58719 64.8478 1.77541 64.4912 2.08275C64.428 2.13716 64.3662 2.19525 64.3089 2.2548C63.7486 2.83418 63.5251 3.59886 63.592 4.39664C63.6626 5.24513 64.0486 6.12524 64.6956 6.87522C64.7978 6.99286 64.9066 7.10903 65.0221 7.22152C65.7368 7.9156 66.7316 8.59499 67.8382 9.21033L67.8359 9.21197ZM47.6053 11.0604C47.9604 10.9075 48.3714 11.0707 48.5243 11.4258C48.6773 11.781 48.5141 12.192 48.1589 12.3449C47.2369 12.7456 46.3737 12.8699 45.6715 12.8758C44.9634 12.8809 44.4171 12.7648 44.1274 12.6898C43.9275 12.6368 43.7003 12.5721 43.451 12.4949C43.1929 12.4155 42.9591 12.3405 42.7532 12.2699C41.3915 11.806 39.9336 11.1685 38.6145 10.4362C37.4057 9.76488 36.3095 9.00976 35.5014 8.22826C35.3588 8.0893 35.222 7.94519 35.0919 7.79446C34.2485 6.81582 33.7426 5.64961 33.6478 4.51441C33.5493 3.32842 33.8941 2.17399 34.7595 1.27991C34.8441 1.19388 34.9338 1.10786 35.0301 1.0255C35.5992 0.535074 36.2999 0.238766 37.0366 0.129218C37.7513 0.02187 38.5071 0.0924559 39.2042 0.331412C39.9108 0.574056 40.5637 0.990206 41.0681 1.57548C41.546 2.1306 41.8887 2.82985 42.0129 3.66575C42.0181 3.70766 42.0217 3.74809 42.0203 3.78853C42.0276 3.99442 42.0342 4.22601 42.043 4.45762C42.1504 7.79715 42.2644 11.3515 45.5936 11.4668C45.6267 11.4683 45.6605 11.472 45.6921 11.4771C46.2333 11.4698 46.8921 11.3698 47.6017 11.0624L47.6053 11.0604ZM39.2954 9.21197C39.991 9.59872 40.7306 9.95679 41.4755 10.2766C40.7814 8.68332 40.713 6.55763 40.6483 4.5003C40.6409 4.28782 40.6343 4.07679 40.6255 3.84518C40.5395 3.2974 40.3196 2.84522 40.0145 2.49083C39.6792 2.10261 39.2395 1.8232 38.7587 1.65777C38.2704 1.49086 37.7433 1.44161 37.244 1.51513C36.7595 1.58719 36.3073 1.77541 35.9507 2.08275C35.8875 2.13716 35.8257 2.19525 35.7683 2.2548C35.2081 2.83418 34.9845 3.59886 35.0515 4.39664C35.122 5.24513 35.5081 6.12524 36.1551 6.87522C36.2573 6.99286 36.3661 7.10903 36.4816 7.22152C37.1962 7.9156 38.191 8.59499 39.2976 9.21033L39.2954 9.21197ZM33.1919 16.1058C33.5471 16.2587 33.7103 16.6712 33.5574 17.0249C33.4044 17.38 32.992 17.5432 32.6383 17.3903C31.9288 17.083 31.27 16.983 30.7287 16.9756C30.6971 16.9808 30.664 16.9844 30.6302 16.9859C27.3008 17.1021 27.187 20.6556 27.0797 23.9951C27.0723 24.2267 27.0657 24.4569 27.0569 24.6642C27.0583 24.7046 27.0554 24.7451 27.0495 24.787C26.9245 25.6252 26.5819 26.3244 26.1047 26.8773C25.6003 27.4625 24.9467 27.8787 24.2408 28.1213C23.5416 28.3603 22.7879 28.4309 22.0732 28.3235C21.3372 28.2125 20.6343 27.9177 20.0667 27.4272C19.9704 27.3449 19.8807 27.2589 19.7961 27.1728C18.93 26.2788 18.5859 25.1244 18.6844 23.9383C18.7778 22.8031 19.2837 21.6369 20.1285 20.6583C20.2586 20.509 20.3939 20.3635 20.538 20.2245C21.3461 19.4429 22.4423 18.687 23.6511 18.0166C24.9702 17.2843 26.4267 16.6483 27.7899 16.1828C27.9957 16.1122 28.2288 16.0372 28.4876 15.9578C28.7369 15.8821 28.9641 15.8174 29.1641 15.763C29.4538 15.6858 30.0023 15.5718 30.7081 15.577C31.411 15.5821 32.2735 15.7071 33.1955 16.1078L33.1919 16.1058ZM26.5076 18.1755C25.7643 18.4932 25.0246 18.8535 24.3276 19.2402C23.221 19.8549 22.2262 20.5365 21.5115 21.229C21.3953 21.3415 21.2865 21.4577 21.185 21.5753C20.5387 22.3253 20.152 23.2054 20.0814 24.0539C20.0167 24.8517 20.238 25.6156 20.7983 26.1957C20.8564 26.2553 20.9174 26.3134 20.9806 26.3678C21.3372 26.6751 21.7902 26.8633 22.274 26.9354C22.7732 27.0089 23.2997 26.9619 23.7886 26.7928C24.268 26.6273 24.7092 26.3501 25.0444 25.9597C25.3503 25.6046 25.5694 25.1531 25.6554 24.6053C25.6643 24.3737 25.6716 24.1605 25.6782 23.9502C25.7452 21.8929 25.8121 19.7687 26.5054 18.1739L26.5076 18.1755ZM18.6881 11.0604C19.0432 10.9074 19.4542 11.0707 19.6072 11.4258C19.7601 11.7809 19.5969 12.1919 19.2417 12.3449C18.3197 12.7456 17.4565 12.8699 16.7543 12.8757C16.0463 12.8809 15.5 12.7647 15.2103 12.6897C15.0103 12.6368 14.7831 12.5721 14.5338 12.4948C14.2757 12.4154 14.0419 12.3404 13.8361 12.2699C12.4744 11.8059 11.0164 11.1684 9.69732 10.4361C8.48854 9.76482 7.39229 9.00971 6.58423 8.22821C6.44159 8.08924 6.30482 7.94513 6.17468 7.7944C5.33133 6.81577 4.82547 5.64955 4.73062 4.51435C4.6321 3.32837 4.97694 2.17393 5.84233 1.27985C5.92689 1.19383 6.01659 1.1078 6.11291 1.02544C6.68199 0.535017 7.38271 0.238709 8.11941 0.12916C8.83409 0.0218125 9.58994 0.0923984 10.287 0.331355C10.9936 0.573999 11.6465 0.990152 12.1509 1.57543C12.6288 2.13055 12.9715 2.82979 13.0957 3.66569C13.1009 3.7076 13.1045 3.74804 13.1031 3.78848C13.1104 3.99436 13.117 4.22596 13.1259 4.45757C13.2332 7.7971 13.3472 11.3514 16.6764 11.4668C16.7095 11.4682 16.7433 11.4719 16.7749 11.4771C17.3161 11.4697 17.9749 11.3697 18.6845 11.0624L18.6881 11.0604ZM10.3782 9.21192C11.0738 9.59867 11.8135 9.95673 12.5583 10.2766C11.8642 8.68326 11.7958 6.55757 11.7311 4.50025C11.7238 4.28776 11.7171 4.07674 11.7083 3.84512C11.6223 3.29734 11.4025 2.84517 11.0973 2.49077C10.762 2.10255 10.3224 1.82315 9.84149 1.65771C9.35326 1.49081 8.82609 1.44155 8.32684 1.51507C7.8423 1.58713 7.39011 1.77535 7.03351 2.08269C6.97028 2.1371 6.90851 2.19519 6.85116 2.25474C6.29089 2.83413 6.06737 3.5988 6.13428 4.39658C6.20487 5.24507 6.59088 6.12519 7.23791 6.87516C7.34012 6.9928 7.44894 7.10897 7.56438 7.22146C8.27906 7.91555 9.27386 8.59494 10.3804 9.21027L10.3782 9.21192Z" fill="white"/>
</svg>
