<svg width="26" height="99" viewBox="0 0 26 99" fill="none" xmlns="http://www.w3.org/2000/svg">
<path d="M13.2894 53.9557C12.9147 53.4164 12.5702 52.9327 12.2461 52.4891C11.9403 52.0694 11.5845 51.5934 11.2077 51.0985C11.1894 51.0753 11.1726 51.05 11.1557 51.026C9.8923 49.3633 8.63953 47.6816 7.79578 45.815C7.76555 45.7581 7.73884 45.699 7.71212 45.6421C7.19116 44.6761 6.31305 44.3668 5.49618 44.0813C5.28456 44.0075 5.07647 43.9337 4.8782 43.8542C3.65558 43.3635 2.48084 42.465 1.73698 41.3042C1.0768 40.2729 0.749183 39.0397 1.0065 37.699C1.05501 37.4487 1.12251 37.2104 1.20828 36.9854C1.52395 36.1537 2.07655 35.5139 2.77047 35.121C3.46789 34.7266 4.2961 34.5832 5.1608 34.7484C5.38578 34.792 5.61427 34.856 5.84418 34.9431C7.09914 35.4205 7.93233 36.3556 8.42296 37.4762C8.98259 38.7529 9.08664 40.2729 8.85603 41.5918C8.83564 41.7029 8.804 41.8738 8.77237 42.0453C8.59449 42.9775 8.40819 43.9554 8.93055 45.0776C8.95235 45.1212 8.97414 45.1669 8.99594 45.2119C9.00437 45.2274 9.01281 45.2421 9.01914 45.259C9.06624 45.3631 9.11475 45.4671 9.16537 45.5712C8.7337 40.2498 11.65 34.2879 14.1746 30.0744C16.1066 25.9503 14.9438 22.8245 13.0209 19.9095C12.6462 19.3703 12.3017 18.8866 11.9776 18.443C11.6717 18.0233 11.316 17.5473 10.9392 17.0523C10.9293 17.039 10.9188 17.0235 10.9103 17.0102C9.64062 15.3369 8.37728 13.6474 7.52722 11.7689C7.49699 11.712 7.47028 11.6529 7.44356 11.596C6.9226 10.63 6.04449 10.3206 5.22762 10.0352C5.016 9.96135 4.80791 9.88753 4.60964 9.80809C3.38702 9.31735 2.21228 8.41884 1.46841 7.2581C0.808242 6.22672 0.480622 4.99357 0.737942 3.65289C0.786452 3.40261 0.853944 3.16427 0.939718 2.9393C1.25539 2.10758 1.80799 1.4678 2.50191 1.07487C3.19934 0.680453 4.02754 0.537026 4.89225 0.702249C5.11723 0.745839 5.34571 0.809817 5.57562 0.896989C6.83058 1.37436 7.66377 2.30943 8.1544 3.43005C8.71403 4.70681 8.81808 6.22679 8.58747 7.5457C8.56708 7.65678 8.53545 7.82762 8.50381 7.99916C8.32594 8.93141 8.13963 9.90931 8.662 11.0315C8.68379 11.0751 8.70559 11.1208 8.72738 11.1658C8.73582 11.1812 8.74425 11.196 8.75058 11.2129C9.54504 12.9698 10.7565 14.5924 11.9777 16.2004C11.9896 16.2137 12.0009 16.2271 12.0128 16.2425C12.1119 16.3719 12.2146 16.5097 12.3236 16.6538C14.5762 19.6221 16.7331 22.5821 16.5362 26.3736L16.565 26.33C16.8322 25.9271 17.0621 25.5805 17.195 25.3738C17.2287 25.3134 17.2639 25.2543 17.299 25.1974C17.8334 24.2279 17.6098 23.3194 17.4017 22.4744C17.3447 22.2445 17.2892 22.0174 17.2519 21.8346C16.9932 20.5445 17.1043 19.0696 17.6716 17.8097C18.1736 16.694 19.0271 15.7469 20.2906 15.228C20.5338 15.1289 20.7708 15.0537 21.0027 15.0031C21.8682 14.8132 22.7062 14.9271 23.4149 15.292C24.1256 15.6583 24.6979 16.2749 25.0326 17.0897C25.1233 17.3098 25.1936 17.5383 25.2456 17.7717C25.5332 19.0801 25.2034 20.2879 24.5348 21.3109C23.7706 22.4765 22.5543 23.3954 21.3213 23.9262C21.2706 23.948 21.0829 24.0253 20.8945 24.1027C20.0227 24.4605 19.1087 24.8366 18.4556 25.8729C18.4218 25.932 18.3867 25.9903 18.3494 26.0494C18.3396 26.0649 18.3311 26.0796 18.3192 26.0951C18.1146 26.4157 17.9142 26.7166 17.6808 27.0695C17.0678 27.9919 16.236 29.2434 15.3558 30.71C15.3375 30.7501 15.3185 30.7909 15.2989 30.8296C15.2686 30.8914 15.23 30.9491 15.185 30.9976C11.9213 36.4976 8.13831 44.816 12.282 50.288C12.3812 50.4174 12.4838 50.5552 12.5928 50.6993C14.8165 53.6325 16.9503 56.5572 16.8112 60.2826L16.8681 60.1934C16.9539 60.0605 17.0313 59.9395 17.1923 59.6893C17.2274 59.6288 17.2612 59.5697 17.2963 59.5114C17.8306 58.5419 17.6071 57.6335 17.399 56.7884C17.342 56.5585 17.2865 56.3314 17.2492 56.1487C16.9905 54.8585 17.1016 53.3836 17.6689 52.1237C18.1709 51.008 19.0244 50.0609 20.2878 49.5421C20.5311 49.4429 20.768 49.3677 21 49.3171C21.8655 49.1273 22.7035 49.2412 23.4121 49.6061C24.1229 49.9723 24.6952 50.5889 25.0299 51.4038C25.1206 51.6238 25.1909 51.8523 25.2429 52.0857C25.5305 53.3941 25.2007 54.6019 24.5321 55.6249C23.7679 56.7906 22.5516 57.7094 21.3185 58.2402C21.2679 58.262 21.0802 58.3393 20.8918 58.4167C20.02 58.7745 19.106 59.1507 18.4529 60.187C18.4191 60.246 18.384 60.3044 18.3467 60.3634C18.3368 60.3789 18.3263 60.3951 18.3165 60.4091C18.263 60.4914 18.1316 60.6946 17.9888 60.9167C17.3877 61.8455 16.5019 63.2178 15.5683 64.8727L15.5669 64.8741C15.5535 64.9008 15.5401 64.9262 15.5233 64.9501C12.548 70.2385 9.12474 78.3672 12.8608 84.2819C13.0991 84.6602 13.3965 85.0039 13.7263 85.3569C14.3681 86.0002 14.9777 86.6484 15.5085 87.3423C15.5254 87.3627 15.5422 87.3844 15.557 87.4062C15.7201 87.6228 15.8762 87.8449 16.0224 88.0713C16.6608 89.0626 17.1129 90.1496 17.2535 91.4276C17.3927 92.6861 17.2267 94.1155 16.6334 95.7985C16.5933 95.911 16.5511 96.0453 16.5075 96.1866C16.3768 96.6049 16.2319 97.0619 16.0252 97.393C15.8038 97.7474 15.4825 98.0736 15.017 98.236C14.5769 98.3906 14.0391 98.3857 13.3895 98.0947C13.3522 98.0792 13.317 98.0609 13.2833 98.0412C13.0935 97.9217 12.9339 97.7994 12.7996 97.6749C12.2786 97.1912 12.1191 96.6724 12.1191 96.2238C12.1191 95.7753 12.2885 95.4111 12.4129 95.2128C12.4664 95.1292 12.5205 95.0603 12.5556 95.0216C13.7044 93.7835 14.4757 92.4765 14.7899 91.2371C15.0754 90.1136 14.9784 89.0464 14.437 88.1528C14.321 88.0016 14.2015 87.854 14.0778 87.7042C13.76 87.3316 13.4443 87.004 13.1469 86.6932C13.014 86.5554 12.8833 86.4197 12.7574 86.2848C12.5324 86.0598 12.3039 85.8348 12.074 85.6063C10.49 84.0455 8.83022 82.4095 7.79731 80.1253C7.76707 80.0663 7.74036 80.0093 7.71364 79.9524C7.19269 78.9864 6.31457 78.677 5.4977 78.3916C5.28608 78.3178 5.07799 78.2439 4.87972 78.1645C3.6571 77.6738 2.48236 76.7753 1.7385 75.6145C1.07832 74.5831 0.750704 73.35 1.00802 72.0093C1.05653 71.759 1.12403 71.5207 1.2098 71.2957C1.52547 70.464 2.07807 69.8242 2.77199 69.4313C3.46942 69.0369 4.29762 68.8934 5.16233 69.0587C5.3873 69.1023 5.61579 69.1662 5.8457 69.2534C7.10066 69.7308 7.93385 70.6659 8.42448 71.7865C8.98412 73.0632 9.08816 74.5832 8.85755 75.9021C8.83716 76.0132 8.80552 76.184 8.77389 76.3556C8.59601 77.2878 8.40972 78.2657 8.93208 79.3879C8.95387 79.4315 8.97566 79.4772 8.99746 79.5222C9.00589 79.5377 9.01434 79.5524 9.02066 79.5693C9.37359 80.3504 9.81863 81.0577 10.3143 81.7143C8.77389 75.7897 11.7436 68.9511 14.3597 64.2996L14.3632 64.2926C16.4113 60.0814 15.2435 56.9078 13.2932 53.9536L13.2894 53.9557ZM18.7001 22.1601C18.809 22.6037 18.9215 23.0607 18.9658 23.5409C19.4312 23.2618 19.9114 23.0635 20.3839 22.8709C20.476 22.8336 20.5667 22.7949 20.7902 22.6993C21.8033 22.2627 22.7974 21.5182 23.4106 20.5824C23.8943 19.8435 24.1347 18.9815 23.933 18.0612C23.8957 17.8932 23.8493 17.7406 23.7938 17.6042C23.5835 17.0938 23.2327 16.712 22.801 16.4885C22.368 16.2649 21.8421 16.1981 21.286 16.3204C21.1214 16.3577 20.9583 16.4062 20.8002 16.4716C19.8862 16.8463 19.2647 17.5416 18.8949 18.365C18.4463 19.3591 18.3627 20.5388 18.5708 21.5766C18.6143 21.7952 18.66 21.9766 18.705 22.1594L18.7001 22.1601ZM5.93827 42.8184C6.36994 42.9696 6.81498 43.1256 7.24033 43.3527C7.26072 42.81 7.35774 42.301 7.45336 41.8004C7.47656 41.6745 7.50046 41.5501 7.5321 41.3673C7.72193 40.2769 7.64108 39.0375 7.19253 38.013C6.83818 37.2052 6.24833 36.5331 5.37022 36.2006C5.21414 36.1415 5.05946 36.0979 4.9069 36.0677C4.36415 35.9637 3.85162 36.0494 3.4305 36.2878C3.00514 36.5296 2.66277 36.9311 2.46099 37.4605C2.40193 37.613 2.35693 37.7782 2.32319 37.954C2.13687 38.9249 2.38014 39.8255 2.86594 40.5826C3.4558 41.5029 4.39439 42.2208 5.37723 42.6137C5.56002 42.6876 5.74704 42.753 5.93827 42.8184ZM5.6676 8.77485C6.09927 8.926 6.54431 9.08207 6.96966 9.30918C6.99005 8.76642 7.08707 8.2574 7.18268 7.75683C7.20589 7.63099 7.22979 7.50655 7.26143 7.32376C7.45125 6.23332 7.3704 4.9939 6.92186 3.96944C6.56751 3.16163 5.97765 2.4895 5.09954 2.15702C4.94346 2.09797 4.78878 2.05438 4.63623 2.02415C4.09347 1.92009 3.58094 2.00587 3.15982 2.24421C2.73447 2.48607 2.39209 2.8875 2.19031 3.4169C2.13126 3.56946 2.08626 3.73467 2.05252 3.91044C1.8662 4.88136 2.10946 5.7819 2.59527 6.53908C3.18512 7.45938 4.12371 8.1772 5.10655 8.57017C5.28934 8.64399 5.47637 8.70946 5.6676 8.77485ZM15.9546 92.0434C15.5279 93.349 14.7046 94.6827 13.5459 95.9307C13.5087 95.9911 13.4567 96.0987 13.4567 96.2281C13.4567 96.356 13.5157 96.5156 13.7119 96.697C13.7808 96.761 13.863 96.825 13.9607 96.8882C14.2413 97.0106 14.4381 97.0246 14.5752 96.9754C14.7011 96.9318 14.8037 96.8172 14.8846 96.6879C15.002 96.498 15.1201 96.1282 15.2255 95.7907C15.2741 95.6382 15.3198 95.4919 15.3683 95.3556C15.8154 94.0872 15.9884 92.9989 15.9525 92.0414L15.9546 92.0434ZM13.5459 95.9307L13.5375 95.9391C13.5326 95.944 13.5424 95.9342 13.5459 95.9307ZM5.93613 77.1316C6.3678 77.2827 6.81284 77.4388 7.23819 77.6659C7.25858 77.1231 7.3556 76.6141 7.45122 76.1136C7.47442 75.9877 7.49832 75.8633 7.52996 75.6805C7.71979 74.59 7.63893 73.3506 7.19039 72.3262C6.83604 71.5184 6.24619 70.8462 5.36807 70.5137C5.212 70.4547 5.05731 70.4111 4.90476 70.3809C4.36201 70.2768 3.84947 70.3626 3.42835 70.6009C3.003 70.8428 2.66063 71.2442 2.45885 71.7736C2.39979 71.9262 2.3548 72.0914 2.32105 72.2672C2.13473 73.2381 2.378 74.1386 2.8638 74.8958C3.45366 75.8161 4.39224 76.5339 5.37509 76.9269C5.55788 77.0007 5.7449 77.0662 5.93613 77.1316ZM18.6979 56.4733C18.8069 56.9169 18.9194 57.3739 18.9637 57.8541C19.4291 57.5749 19.9093 57.3767 20.3817 57.184C20.4738 57.1468 20.5645 57.1081 20.7881 57.0125C21.8012 56.5759 22.7953 55.8314 23.4085 54.8956C23.8922 54.1566 24.1326 53.2947 23.9308 52.3744C23.8936 52.2063 23.8472 52.0538 23.7916 51.9174C23.5814 51.407 23.2306 51.0252 22.7989 50.8016C22.3658 50.5781 21.8399 50.5113 21.2838 50.6336C21.1193 50.6709 20.9562 50.7194 20.798 50.7848C19.884 51.1595 19.2626 51.8548 18.8927 52.6782C18.4442 53.6723 18.3605 54.852 18.5686 55.8898C18.6122 56.1084 18.6579 56.2898 18.7029 56.4726L18.6979 56.4733Z" fill="white"/>
</svg>
