<svg width="25" height="21" viewBox="0 0 25 21" fill="none" xmlns="http://www.w3.org/2000/svg">
<path d="M0.783447 18.0315C3.2843 18.1723 5.47119 17.5876 7.60395 16.0395C5.44954 15.6714 3.95553 14.6862 3.14356 12.6509C3.77148 12.5643 4.32362 12.7267 4.97319 12.4668C2.85126 11.5358 1.47633 10.1392 1.4222 7.72498C2.09342 7.77911 2.60226 8.22298 3.40339 8.15802C1.45468 6.25261 0.859231 4.17398 2.08259 1.65148C4.11791 3.98994 6.49968 5.58139 9.41193 6.3284C9.57432 6.3717 9.72588 6.41501 9.88827 6.44749C10.6353 6.6207 11.523 6.98879 11.9777 6.93466C12.7572 6.83723 11.9777 5.93865 12.1726 4.76943C12.7897 1.13183 16.7954 -0.524583 19.7618 1.60818C20.6279 2.2361 21.3099 2.22527 22.1652 1.84635C22.609 1.65148 23.0638 1.45661 23.5942 1.22926C23.4752 2.26858 22.674 2.84236 22.0353 3.61102C22.7606 3.77342 23.3452 3.56772 24.0165 3.35119C23.7891 4.0982 23.2261 4.52042 22.7173 4.93182C22.1868 5.35404 21.9811 5.79791 21.9595 6.49079C21.6347 16.9814 9.71506 25.0902 1.56294 18.6378C0.772629 18.0099 1.54128 18.6378 0.783447 18.0315Z" fill="white"/>
</svg>
